<svg width="277" height="277" viewBox="0 0 277 277" fill="none" xmlns="http://www.w3.org/2000/svg">
<path d="M183.922 137.632L266.674 54.7942C272.046 48.6878 274.892 40.7646 274.633 32.6352C274.373 24.5057 271.028 16.7802 265.276 11.0289C259.525 5.27759 251.799 1.93216 243.67 1.67261C235.541 1.41306 227.617 4.25887 221.511 9.63158L138.674 92.3836L55.6868 9.37558C52.7144 6.40315 49.1856 4.0453 45.302 2.43664C41.4183 0.82797 37.2558 3.13196e-08 33.0522 0C28.8485 -3.13196e-08 24.6861 0.82797 20.8024 2.43664C16.9187 4.0453 13.3899 6.40315 10.4175 9.37558C7.44509 12.348 5.08724 15.8768 3.47857 19.7605C1.8699 23.6441 1.04193 27.8066 1.04193 32.0102C1.04193 36.2139 1.8699 40.3764 3.47857 44.26C5.08724 48.1437 7.44509 51.6725 10.4175 54.6449L93.4255 137.632L10.6735 220.448C7.42813 223.349 4.80877 226.881 2.97567 230.83C1.14258 234.778 0.134302 239.059 0.0125252 243.41C-0.109252 247.761 0.658032 252.092 2.26744 256.136C3.87685 260.181 6.29453 263.854 9.37258 266.933C12.4506 270.011 16.1243 272.428 20.1689 274.038C24.2135 275.647 28.5439 276.414 32.8952 276.293C37.2465 276.171 41.5272 275.163 45.4755 273.329C49.4237 271.496 52.9564 268.877 55.8575 265.632L138.674 182.88L221.404 265.632C227.407 271.635 235.549 275.007 244.039 275.007C252.528 275.007 260.67 271.635 266.674 265.632C272.677 259.629 276.049 251.487 276.049 242.997C276.049 234.507 272.677 226.365 266.674 220.362L183.922 137.632Z" fill="#F06B30"/>
</svg>
